<?xml version="1.0" encoding="iso-8859-1"?>
<!-- Uploaded to: SVG Repo, www.svgrepo.com, Generator: SVG Repo Mixer Tools -->
<svg height="800px" width="800px" version="1.1" id="Layer_1" xmlns="http://www.w3.org/2000/svg" xmlns:xlink="http://www.w3.org/1999/xlink" 
	 viewBox="0 0 512 512" xml:space="preserve">
<path style="fill:#D7EBFF;" d="M306.087,100.174H205.913c-9.223,0-16.696-7.473-16.696-16.696V16.696
	C189.217,7.473,196.69,0,205.913,0h100.174c9.223,0,16.696,7.473,16.696,16.696v66.783
	C322.783,92.701,315.31,100.174,306.087,100.174z"/>
<path style="fill:#BDDEFF;" d="M306.087,0H256v100.174h50.087c9.223,0,16.696-7.473,16.696-16.696V16.696
	C322.783,7.473,315.31,0,306.087,0z"/>
<path style="fill:#5CE6E6;" d="M356.174,512H155.826c-27.662,0-50.087-22.424-50.087-50.087V294.957h300.522v166.957
	C406.261,489.576,383.836,512,356.174,512z"/>
<path style="fill:#51CCCC;" d="M256,512h100.174c27.662,0,50.087-22.424,50.087-50.087V294.957H256V512z"/>
<path style="fill:#FFD15D;" d="M406.261,294.957H105.739V116.87c0-27.662,22.424-50.087,50.087-50.087h200.348
	c27.662,0,50.087,22.424,50.087,50.087V294.957z"/>
<path style="fill:#F9B54C;" d="M356.174,66.783H256v228.174h150.261V116.87C406.261,89.207,383.836,66.783,356.174,66.783z"/>
<path style="fill:#576573;" d="M289.408,411.826h-66.783c-9.223,0-16.696-7.473-16.696-16.696c0-9.223,7.473-16.696,16.696-16.696
	h66.783c9.223,0,16.696,7.473,16.696,16.696C306.104,404.353,298.631,411.826,289.408,411.826z"/>
<path style="fill:#485566;" d="M289.408,378.435H256v33.391h33.408c9.223,0,16.696-7.473,16.696-16.696
	C306.104,385.908,298.631,378.435,289.408,378.435z"/>
<path style="fill:#576573;" d="M289.408,166.957h-16.696v-16.696c0-9.223-7.473-16.696-16.696-16.696
	c-9.223,0-16.696,7.473-16.696,16.696v16.696h-16.696c-9.223,0-16.696,7.473-16.696,16.696s7.473,16.696,16.696,16.696h16.696
	v16.696c0,9.223,7.473,16.696,16.696,16.696c9.223,0,16.696-7.473,16.696-16.696v-16.696h16.696c9.223,0,16.696-7.473,16.696-16.696
	S298.631,166.957,289.408,166.957z"/>
<path style="fill:#485566;" d="M289.408,166.957h-16.696v-16.696c0-9.223-7.473-16.696-16.696-16.696L256,133.566v100.172
	l0.017,0.001c9.223,0,16.696-7.473,16.696-16.696v-16.696h16.696c9.223,0,16.696-7.473,16.696-16.696
	S298.631,166.957,289.408,166.957z"/>
</svg>