<?xml version="1.0" encoding="iso-8859-1"?>
<!-- Uploaded to: SVG Repo, www.svgrepo.com, Generator: SVG Repo Mixer Tools -->
<svg version="1.1" id="Layer_1" xmlns="http://www.w3.org/2000/svg" xmlns:xlink="http://www.w3.org/1999/xlink" 
	 viewBox="0 0 512 512" xml:space="preserve">
<path style="fill:#A7A9AC;" d="M295.363,500.989H96.069c-14.899,0-26.976-12.078-26.976-26.976V98.546
	c0-14.899,12.078-26.976,26.976-26.976h199.295c14.899,0,26.976,12.078,26.976,26.976v375.467
	C322.34,488.912,310.262,500.989,295.363,500.989z"/>
<rect x="146.168" y="11.011" style="fill:#EFEFEF;" width="99.097" height="60.559"/>
<rect x="113.135" y="115.613" style="fill:#39B54A;" width="165.161" height="56.889"/>
<g>
	<rect x="113.135" y="172.505" style="fill:#EFEFEF;" width="165.161" height="56.889"/>
	<rect x="113.135" y="229.387" style="fill:#EFEFEF;" width="165.161" height="56.889"/>
</g>
<rect x="113.135" y="286.28" style="fill:#FFDE17;" width="165.161" height="56.889"/>
<rect x="113.135" y="343.172" style="fill:#F7941E;" width="165.161" height="56.889"/>
<rect x="113.135" y="400.054" style="fill:#F15A29;" width="165.161" height="56.889"/>
<g>
	<path style="fill:#231F20;" d="M295.363,60.559h-39.088V11.011c0-6.08-4.931-11.011-11.011-11.011h-99.097
		c-6.08,0-11.011,4.931-11.011,11.011v49.548H96.069c-20.946,0-37.987,17.041-37.987,37.987v375.467
		c0,20.946,17.041,37.987,37.987,37.987h199.295c20.946,0,37.987-17.041,37.987-37.987V98.546
		C333.351,77.6,316.309,60.559,295.363,60.559z M157.178,22.022h77.075v38.538h-77.075V22.022z M311.329,474.013
		c0,8.803-7.163,15.966-15.966,15.966H96.069c-8.803,0-15.966-7.163-15.966-15.966V98.546c0-8.803,7.162-15.966,15.966-15.966
		h199.295c8.803,0,15.966,7.162,15.966,15.966V474.013z"/>
	<path style="fill:#231F20;" d="M278.297,104.602H113.135c-6.08,0-11.011,4.931-11.011,11.011v341.333
		c0,6.08,4.931,11.011,11.011,11.011h165.161c6.08,0,11.011-4.931,11.011-11.011V115.613
		C289.308,109.533,284.377,104.602,278.297,104.602z M267.286,218.38h-62.211c-6.08,0-11.011,4.931-11.011,11.011
		c0,6.08,4.931,11.011,11.011,11.011h62.211v34.868h-143.14V229.39v-45.877h143.14V218.38z M267.286,332.158h-143.14V297.29h143.14
		V332.158z M124.146,354.18h143.14v34.867h-143.14V354.18z M124.146,126.624h143.14v34.868h-143.14V126.624z M267.286,445.935
		h-143.14v-34.868h143.14V445.935z"/>
	<path style="fill:#231F20;" d="M375.008,146.076h22.94v22.939c0,6.08,4.931,11.011,11.011,11.011s11.011-4.931,11.011-11.011
		v-22.939h22.939c6.08,0,11.011-4.931,11.011-11.011s-4.931-11.011-11.011-11.011h-22.939v-22.94c0-6.08-4.931-11.011-11.011-11.011
		s-11.011,4.931-11.011,11.011v22.94h-22.94c-6.08,0-11.011,4.931-11.011,11.011S368.927,146.076,375.008,146.076z"/>
	<path style="fill:#231F20;" d="M442.908,441.347h-67.9c-6.08,0-11.011,4.931-11.011,11.011s4.931,11.011,11.011,11.011h67.9
		c6.08,0,11.011-4.931,11.011-11.011S448.988,441.347,442.908,441.347z"/>
	<path style="fill:#231F20;" d="M160.482,240.401h1.101c6.08,0,11.011-4.931,11.011-11.011c0-6.08-4.931-11.011-11.011-11.011
		h-1.101c-6.08,0-11.011,4.931-11.011,11.011C149.471,235.47,154.402,240.401,160.482,240.401z"/>
</g>
</svg>